# xmcd
#
# Track frame offsets:
#	150
#	10200
#	21689
#	33566
#	41901
#	53050
#	61882
#	71659
#	82299
#	94011
#	104268
#	119797
#	131497
#	143344
#
# Disc length: 2005 seconds
#
# Revision: 0
# Processed by: cddbd v1.4PL0 Copyright (c) Steve Scherf et al.
# Submitted via: EasyCDDAExtractor 4.5.0.2
#
DISCID=cb07d30e
DTITLE=Peter Hill - The Best Of Peter Hill nr. 1
DYEAR=1992
DGENRE=Country 
TTITLE0=Country Polka
TTITLE1=I Love You Because
TTITLE2=Little Bird
TTITLE3=San Antonio Rose
TTITLE4=Yellow Bird
TTITLE5=Send Me The Pilow
TTITLE6=Owens Polka
TTITLE7=Dutch Polka
TTITLE8=Devil Woman
TTITLE9=Lovesick Blues
TTITLE10=Last Date
TTITLE11=Sing Me Back Home
TTITLE12=Down Yonder
TTITLE13=Country Boogie
EXTD=
EXTT0=
EXTT1=
EXTT2=
EXTT3=
EXTT4=
EXTT5=
EXTT6=
EXTT7=
EXTT8=
EXTT9=
EXTT10=
EXTT11=
EXTT12=
EXTT13=
PLAYORDER=
